<svg xmlns="http://www.w3.org/2000/svg" viewBox="0 0 180 180" width="180" height="180">
  <rect width="180" height="180" rx="40" fill="#0f1f1a"/>
  <path fill="none" stroke="#ffffff" stroke-linecap="round" stroke-linejoin="round" stroke-width="8" transform="translate(45, 45) scale(3.75)" d="M5 6.5a1.5 1.5 0 011.5-1.5h2.46a.75.75 0 01.711.513l1.124 3.37a.75.75 0 01-.377.908l-1.693.847a8.281 8.281 0 004.137 4.137l.847-1.693a.75.75 0 01.908-.377l3.37 1.124a.75.75 0 01.513.712V17a1.5 1.5 0 01-1.5 1.5h-.75C8.787 18.5 5 13.713 5 7.25V6.5z"/>
</svg>
