<svg xmlns="http://www.w3.org/2000/svg" viewBox="0 0 24 24" width="32" height="32">
  <rect width="24" height="24" rx="6" fill="#0f1f1a"/>
  <path fill="none" stroke="#ffffff" stroke-linecap="round" stroke-linejoin="round" stroke-width="1.5" d="M5 6.5a1.5 1.5 0 011.5-1.5h2.46a.75.75 0 01.711.513l1.124 3.37a.75.75 0 01-.377.908l-1.693.847a8.281 8.281 0 004.137 4.137l.847-1.693a.75.75 0 01.908-.377l3.37 1.124a.75.75 0 01.513.712V17a1.5 1.5 0 01-1.5 1.5h-.75C8.787 18.5 5 13.713 5 7.25V6.5z"/>
</svg>
